<?xml version="1.0" standalone="no"?>
<!DOCTYPE svg PUBLIC "-//W3C//DTD SVG 20010904//EN"
 "http://www.w3.org/TR/2001/REC-SVG-20010904/DTD/svg10.dtd">
<svg version="1.0" xmlns="http://www.w3.org/2000/svg"
 width="700.000000pt" height="700.000000pt" viewBox="0 0 700.000000 700.000000"
 preserveAspectRatio="xMidYMid meet">
<metadata>
Created by potrace 1.11, written by Peter Selinger 2001-2013
</metadata>
<g transform="translate(0.000000,700.000000) scale(0.100000,-0.100000)"
fill="#000000" stroke="none">
<path d="M3417 5744 c-1 -1 -31 -5 -67 -8 -348 -36 -696 -258 -888 -568 -240
-386 -245 -881 -12 -1267 180 -301 462 -502 810 -577 88 -19 311 -27 390 -14
30 5 71 12 90 15 39 6 164 41 195 55 284 122 463 273 614 518 27 45 48 82 45
82 -3 0 3 15 14 33 40 65 93 254 107 379 6 54 7 225 1 258 -3 14 -7 45 -10 70
-19 152 -97 343 -200 495 -193 283 -515 480 -851 521 -55 6 -233 13 -238 8z"/>
<path d="M246 4522 c-16 -4 -17 -15 -12 -135 4 -73 8 -145 11 -162 2 -16 6
-55 9 -85 11 -145 71 -423 132 -613 90 -280 234 -578 397 -822 40 -59 142
-199 162 -221 5 -7 32 -38 60 -70 371 -436 792 -732 1365 -959 39 -16 200 -67
270 -86 25 -7 50 -14 55 -15 19 -6 250 -54 280 -58 16 -3 53 -8 80 -11 28 -3
61 -8 75 -10 163 -28 614 -23 805 8 22 4 56 9 75 12 56 8 162 28 215 40 161
37 227 57 415 126 638 233 1206 684 1585 1259 45 69 99 154 119 190 43 75 176
348 176 360 0 4 11 32 24 61 13 30 39 104 59 164 52 163 65 210 92 335 2 8 6
26 9 40 7 29 14 71 21 120 3 19 10 62 15 95 22 141 36 425 22 434 -6 3 -376 6
-823 6 l-812 -1 -2 -54 c-9 -228 -61 -439 -160 -646 -192 -398 -532 -700 -945
-838 -117 -39 -123 -40 -270 -66 -81 -14 -144 -18 -275 -15 -93 1 -179 5 -190
8 -11 2 -42 8 -70 12 -27 5 -52 9 -55 10 -3 1 -18 5 -35 9 -67 17 -171 47
-190 56 -11 5 -47 20 -80 34 -181 74 -360 198 -515 356 -85 87 -183 211 -221
280 -8 14 -16 27 -19 30 -13 11 -80 150 -109 222 -32 81 -76 228 -86 288 -3
19 -7 46 -10 60 -6 34 -17 154 -19 210 l-1 44 -806 1 c-443 0 -813 -2 -823 -3z"/>
</g>
</svg>
