<svg xmlns="http://www.w3.org/2000/svg" style="isolation:isolate" width="502.752" height="120"><defs><clipPath id="a"><path d="M0 0h502.752v120H0z"/></clipPath></defs><g clip-path="url(#a)"><path d="M502.752 32.352h-18.198l-14.593 42.637c-1.671 4.659-3.869 11.868-5.011 17.231a147.127 147.127 0 0 0-3.956-15.033l-14.242-44.835h-18.901l29.187 86.681h15.736l29.978-86.681zm-80.827 57.934V32.352h-17.582v55.121c0 4.571 0 5.802-.264 7.648-.703 6.33-5.538 10.022-13.099 10.022-5.714 0-9.758-2.11-11.78-5.89-.967-1.846-1.494-5.011-1.494-10.286V32.352h-17.671v59.956c0 8.263.88 11.78 3.693 16.176 4.835 7.56 14.505 11.516 27.604 11.516 18.55 0 26.989-9.407 29.187-16.176 1.231-3.692 1.407-5.362 1.407-13.538h-.001zm-77.802 21.45V70.681h-33.231l2.198 14.066h13.099v19.517c-2.813 1.494-5.89 2.11-9.758 2.11-5.539 0-10.286-1.671-13.451-4.748-4.395-4.395-6.505-12.307-6.505-24.527 0-12.923 1.494-22.154 7.297-27.78 2.989-2.814 7.384-4.308 12.395-4.308 6.594 0 12.396 2.11 17.934 6.681l9.231-10.725c-7.56-6.593-16.967-9.934-27.429-9.934-8.087 0-14.593 1.846-20.923 6.066-11.956 8-17.934 20.923-17.934 39.121 0 12.835 2.901 21.978 9.231 30.066 6.857 8.879 16.44 13.099 29.275 13.099 10.198 0 19.78-2.462 28.571-7.649zm-76.94-36.044c0-15.472-3.869-26.461-11.781-34.285-5.187-5.187-11.516-7.913-18.813-8.528-3.428-.263-10.022-.527-14.945-.527h-17.319v86.066h20.923c5.011 0 9.143-.264 12.308-.528 8.088-.615 15.736-5.275 20.923-12.308 5.802-7.824 8.704-18.109 8.704-29.89zm-19.429 1.671c0 18.197-5.187 26.901-16.615 26.901h-9.319V45.978h8c6.769 0 10.725 2.462 13.538 7.209 3.517 5.714 4.396 14.066 4.396 24.176z" fill="#575759"/><path d="M128.598 32.123c0 23.578-19.147 42.673-42.708 42.673-23.578 0-42.672-19.095-42.672-42.673H0c0 47.42 38.47 85.89 85.89 85.89 47.438 0 85.89-38.47 85.89-85.89h-43.182zm-74.831 0C53.767 14.382 68.167 0 85.89 0c17.741 0 32.106 14.382 32.106 32.123 0 17.758-14.365 32.123-32.106 32.123-17.723 0-32.123-14.365-32.123-32.123" fill="#00519C"/></g></svg>