<svg xmlns="http://www.w3.org/2000/svg" width="515.899" height="231.084"><path d="M467.725 159.34l-2.124-2.832c-1.158.902-2.445 1.416-3.797 1.416-1.673 0-3.347-1.094-6.308-1.094-5.02 0-8.367 2.832-8.367 7.08 0 2.96 1.61 4.956 4.763 5.857-2.252.708-3.99 1.545-3.99 3.604 0 2.06 1.287 3.154 6.886 3.154 3.862 0 5.729.644 5.729 2.896 0 1.931-1.738 3.283-4.956 3.283-2.896 0-4.57-1.094-4.57-3.025 0-.58.257-1.287.386-1.48h-4.312c-.064.257-.386 1.351-.386 2.252 0 3.862 3.862 5.664 9.268 5.664 5.6 0 9.268-2.381 9.268-6.822 0-4.248-3.54-5.986-6.887-5.986-4.891 0-5.213-.064-5.213-.837 0-.643 1.352-1.416 2.832-1.995 4.892 0 7.852-2.767 7.852-6.372 0-2.124-1.223-3.475-1.351-3.604.129 0 .772.193 1.609.193 1.416 0 2.51-.386 3.668-1.352zm-8.689 4.506c0 2.317-1.287 3.54-3.604 3.54-2.253 0-3.604-1.094-3.604-3.476 0-2.381 1.287-3.604 3.604-3.604 2.382 0 3.604 1.223 3.604 3.54zM443.1 178.199v-15.576c0-3.797-2.188-5.793-5.406-5.793-2.253 0-4.184 1.03-6.372 2.897 0-1.095-.257-1.996-.772-2.961l-4.12 1.158c.58 1.48.773 2.768.773 4.956V178.2h4.44v-15.126c1.352-1.351 3.283-2.317 4.57-2.317 1.738 0 2.382.773 2.382 3.605v13.838h4.505zm-19.9-1.48c-.258-.194-1.288-1.352-1.288-4.184V156.83l-4.376.837v14.932c-.708 1.48-2.575 2.703-4.12 2.703-2.638 0-3.025-1.866-3.025-4.505V156.83l-4.44.837v14.16c0 2.574.321 3.926 1.158 4.956 1.03 1.222 2.832 2.06 5.213 2.06 2.382 0 4.377-.838 5.922-2.575.321 1.158.9 1.93 1.802 2.574l3.154-2.124zm-19.515-19.631c-.515-.258-.965-.322-1.61-.322-1.994 0-3.668 1.094-5.341 3.347 0-1.159-.257-2.317-.773-3.283l-4.119 1.03c.45 1.287.708 3.025.708 5.664v14.675h4.57v-14.096c.386-1.673 1.995-3.09 3.862-3.09.515 0 .836.13 1.287.323l1.416-4.248zm-15.01 11.907v-.901c0-4.892-.9-7.466-2.767-9.075-1.738-1.61-3.604-2.189-5.664-2.189-2.639 0-4.698.901-6.436 2.832-1.802 2.06-2.574 4.506-2.574 8.174 0 6.63 3.733 10.877 9.59 10.877 2.831 0 5.342-.9 7.53-2.767l-1.802-2.703c-1.545 1.351-3.218 2.06-5.214 2.06-4.054 0-5.149-3.09-5.149-5.986v-.322h12.487zm-4.698-3.347h-7.723c0-3.347 1.416-5.342 3.99-5.342 2.253 0 3.733 1.995 3.733 5.342zm-16.773 12.55v-14.674c0-2.124-.193-3.09-.708-4.12-.707-1.35-2.574-2.574-5.084-2.574-2.188 0-4.312.901-6.372 2.768 0-.193.064-1.223.064-2.382v-4.44c0-1.996-.129-3.67-.386-4.892l-4.57.965c.258 1.095.387 2.704.387 4.57v24.78h4.57v-14.932c1.48-1.545 3.41-2.575 5.02-2.575 1.737 0 2.638.772 2.638 3.347v14.16h4.441zm-19.926-2.252l-2.124-2.703c-1.352 1.351-2.768 2.06-4.184 2.06-1.158 0-2.123-.451-2.767-1.224-.966-1.03-1.416-2.832-1.416-5.664 0-2.638.257-4.57.901-5.856.644-1.352 1.802-2.06 3.282-2.06 1.159 0 2.253.45 3.476 1.609l2.253-3.025c-1.802-1.738-3.476-2.253-5.729-2.253-4.698 0-9.203 3.605-9.203 11.2 0 6.693 3.153 10.683 8.882 10.683 2.767 0 4.762-.836 6.629-2.767zm-19.528 2.253V156.83l-4.57.837v20.532h4.57zm.773-26.968c0-1.674-1.352-3.025-2.96-3.025-1.739 0-3.026 1.351-3.026 3.025 0 1.673 1.287 3.025 2.896 3.025 1.738 0 3.09-1.352 3.09-3.025zm-8.92 20.467c0-2.446-1.16-4.763-5.343-5.793l-2.574-.708c-2.124-.514-2.832-1.158-2.832-2.445 0-1.61 1.287-2.704 3.218-2.704 1.609 0 3.154.515 5.084 1.545l1.48-3.154c-1.737-.9-4.054-1.802-6.886-1.802-4.634 0-7.723 2.768-7.723 6.63 0 2.96 1.866 5.084 4.955 5.728l2.51.579c2.382.45 3.412 1.287 3.412 2.896 0 1.738-1.416 2.897-3.411 2.897-2.317 0-4.892-1.095-6.758-2.124l-1.61 3.218c2.704 1.48 5.471 2.317 8.046 2.317 5.02 0 8.431-2.896 8.431-7.08zm-16.774-14.61c-.514-.258-.965-.322-1.609-.322-1.995 0-3.668 1.094-5.342 3.347 0-1.159-.257-2.317-.772-3.283l-4.12 1.03c.451 1.287.709 3.025.709 5.664v14.675h4.57v-14.096c.386-1.673 1.995-3.09 3.861-3.09.515 0 .837.13 1.287.323l1.416-4.248zm-15.009 11.907v-.901c0-4.892-.9-7.466-2.767-9.075-1.738-1.61-3.605-2.189-5.664-2.189-2.64 0-4.699.901-6.436 2.832-1.803 2.06-2.575 4.506-2.575 8.174 0 6.63 3.733 10.877 9.59 10.877 2.832 0 5.342-.9 7.53-2.767l-1.802-2.703c-1.544 1.351-3.218 2.06-5.213 2.06-4.055 0-5.15-3.09-5.15-5.986v-.322h12.487zm-4.698-3.347h-7.724c0-3.347 1.416-5.342 3.99-5.342 2.253 0 3.734 1.995 3.734 5.342zm-13.62-8.303h-4.762l-3.476 10.62c-.708 2.06-1.158 4.312-1.223 4.827h-.064c-.257-1.03-.772-3.154-1.287-4.698l-3.604-11.264-4.699.708 7.53 20.725h3.991l7.595-20.918zm-19.128 20.79l-.708-2.768c-.515.257-1.223 0-1.48-.322-.322-.515-.45-.966-.45-3.798v-17.635c0-2.703-.065-4.44-.387-5.728l-4.634 1.03c.258 1.738.386 3.282.386 6.114v17.764c0 1.738 0 5.857 4.57 5.857 1.03 0 1.931-.193 2.703-.515zm-9.924 0l-.708-2.768c-.515.257-1.223 0-1.48-.322-.323-.515-.451-.966-.451-3.798v-17.635c0-2.703-.065-4.44-.386-5.728l-4.634 1.03c.257 1.738.386 3.282.386 6.114v17.764c0 1.738 0 5.857 4.57 5.857 1.03 0 1.93-.193 2.703-.515zm-10.684-1.932c-1.61-1.158-1.867-2.06-1.803-4.827l.065-5.986c.064-3.089.064-4.183-.322-5.084-.901-2.317-3.09-3.476-6.372-3.476-3.09 0-5.728.837-8.818 2.832l1.996 3.283c.643-.515 3.54-2.446 6.243-2.446 2.445 0 2.896 1.287 2.896 3.669v1.158h-1.416c-6.694 0-10.298 2.382-10.298 7.209 0 3.668 2.124 6.307 6.887 6.307 2.252 0 4.055-.708 5.728-2.574.515 1.287 1.61 2.317 2.832 2.767l2.381-2.832zm-6.244-7.788l-.064 4.892c-.901 1.352-2.317 2.188-3.733 2.188-1.802 0-2.896-1.223-2.896-3.218 0-2.574 1.351-3.926 5.857-3.926.321 0 .772.064.836.064zm-11.482-19.308c-1.416-.837-2.896-1.159-4.698-1.159-3.669 0-6.308 1.996-6.308 6.308 0 1.738.065 2.832.065 3.09h-1.996v3.153h1.931v17.7h4.506v-17.7h4.247l1.159-3.154h-5.47v-3.154c0-1.866 1.029-2.96 2.574-2.96.836 0 1.48.257 2.51.772l1.48-2.896zm-16.322 29.092v-15.576c0-3.797-2.188-5.793-5.406-5.793-2.253 0-4.184 1.03-6.372 2.897 0-1.095-.258-1.996-.773-2.961l-4.119 1.158c.58 1.48.772 2.768.772 4.956V178.2h4.441v-15.126c1.352-1.351 3.283-2.317 4.57-2.317 1.738 0 2.382.773 2.382 3.605v13.838h4.505zm-21.15-7.981v-20.532h-4.762v19.18c0 3.797-1.674 5.793-5.15 5.793-3.475 0-5.084-1.416-5.084-5.793v-19.18h-4.763v20.532c0 4.634 2.317 8.495 9.848 8.495 6.243 0 9.912-3.282 9.912-8.495zM510.9 127.803v-.901c0-4.892-.9-7.466-2.767-9.075-1.738-1.61-3.604-2.188-5.664-2.188-2.639 0-4.698.9-6.436 2.831-1.802 2.06-2.575 4.506-2.575 8.174 0 6.63 3.733 10.878 9.59 10.878 2.832 0 5.342-.901 7.53-2.768l-1.802-2.703c-1.544 1.351-3.218 2.06-5.213 2.06-4.055 0-5.149-3.09-5.149-5.986v-.322H510.9zm-4.698-3.347h-7.723c0-3.347 1.415-5.342 3.99-5.342 2.253 0 3.733 1.995 3.733 5.342zm-16.76 12.55v-14.674c0-2.124-.193-3.09-.708-4.119-.708-1.352-2.574-2.574-5.085-2.574-2.188 0-4.312.9-6.371 2.767 0-.193.064-1.223.064-2.381v-4.441c0-1.996-.129-3.669-.386-4.892l-4.57.966c.257 1.094.386 2.703.386 4.57v24.779h4.57v-14.932c1.48-1.545 3.411-2.575 5.02-2.575 1.738 0 2.64.773 2.64 3.347v14.16h4.44zm-19.926-2.252l-2.124-2.703c-1.352 1.351-2.768 2.06-4.184 2.06-1.158 0-2.124-.451-2.768-1.223-.965-1.03-1.415-2.832-1.415-5.664 0-2.64.257-4.57.9-5.857.644-1.352 1.803-2.06 3.283-2.06 1.159 0 2.253.45 3.476 1.61l2.252-3.026c-1.802-1.738-3.475-2.252-5.728-2.252-4.698 0-9.204 3.604-9.204 11.199 0 6.693 3.154 10.684 8.882 10.684 2.768 0 4.763-.837 6.63-2.768zM450 137.007v-21.368l-4.57.836v20.532H450zm.772-26.968c0-1.673-1.351-3.025-2.96-3.025-1.738 0-3.025 1.352-3.025 3.025 0 1.673 1.287 3.025 2.896 3.025 1.738 0 3.09-1.352 3.09-3.025zm-8.25 26.903l-.709-2.767c-.515.257-1.223 0-1.48-.322-.322-.515-.45-.965-.45-3.797V112.42c0-2.703-.065-4.44-.387-5.728l-4.634 1.03c.257 1.738.386 3.282.386 6.114V131.6c0 1.738 0 5.857 4.57 5.857 1.03 0 1.93-.193 2.703-.515zm-10.608-3.089h-10.298l9.848-14.481v-3.219h-14.74v3.219h9.655l-10.491 14.61v3.025h14.739l1.287-3.154zm-18.06 2.768l-.58-2.704c-.771.258-1.286.387-1.93.387-1.995 0-2.574-.708-2.574-3.283v-11.714h3.861l1.159-3.154h-4.956c0-2.06.193-4.57.386-6.243l-4.698 1.094c-.193 1.545-.193 3.412-.193 5.15h-2.317v3.153h2.317v12.873c0 2.96 1.416 5.342 5.47 5.342a9.267 9.267 0 0 0 4.055-.901zm-13.49-8.818v-.901c0-4.892-.901-7.466-2.768-9.075-1.737-1.61-3.604-2.188-5.664-2.188-2.638 0-4.698.9-6.436 2.831-1.802 2.06-2.574 4.506-2.574 8.174 0 6.63 3.733 10.878 9.59 10.878 2.832 0 5.342-.901 7.53-2.768l-1.802-2.703c-1.545 1.351-3.218 2.06-5.213 2.06-4.055 0-5.15-3.09-5.15-5.986v-.322h12.487zm-4.699-3.347h-7.723c0-3.347 1.416-5.342 3.99-5.342 2.253 0 3.733 1.995 3.733 5.342zm-15.447 6.05c0-2.446-1.158-4.763-5.342-5.792l-2.574-.708c-2.124-.515-2.832-1.159-2.832-2.446 0-1.61 1.287-2.703 3.218-2.703 1.61 0 3.154.515 5.085 1.544l1.48-3.153c-1.738-.901-4.055-1.803-6.887-1.803-4.634 0-7.723 2.768-7.723 6.63 0 2.96 1.866 5.084 4.956 5.728l2.51.58c2.381.45 3.411 1.286 3.411 2.896 0 1.737-1.416 2.896-3.411 2.896-2.317 0-4.892-1.094-6.758-2.124l-1.61 3.218c2.704 1.48 5.472 2.317 8.046 2.317 5.02 0 8.431-2.896 8.431-7.08zm-18.78-2.703v-.901c0-4.892-.901-7.466-2.768-9.075-1.738-1.61-3.604-2.188-5.664-2.188-2.639 0-4.698.9-6.436 2.831-1.802 2.06-2.575 4.506-2.575 8.174 0 6.63 3.733 10.878 9.59 10.878 2.832 0 5.343-.901 7.53-2.768l-1.801-2.703c-1.545 1.351-3.218 2.06-5.214 2.06-4.054 0-5.149-3.09-5.149-5.986v-.322h12.487zm-4.699-3.347h-7.723c0-3.347 1.416-5.342 3.99-5.342 2.253 0 3.733 1.995 3.733 5.342zm-16.747 10.556V121.56h-10.298l.644 3.862h4.827v7.401c-1.03.58-2.317.901-3.797.901-2.189 0-4.248-.772-5.342-2.124-1.416-1.609-2.124-4.376-2.124-8.367 0-6.693 1.93-11.327 7.208-11.327 2.188 0 4.055.643 5.986 2.188l2.381-2.96c-2.317-1.996-5.213-3.026-8.431-3.026-2.768 0-5.02.708-7.08 2.253-3.54 2.703-5.342 6.758-5.342 12.615 0 4.505.965 7.659 3.154 10.362 2.252 2.768 5.342 4.055 9.332 4.055 3.154 0 6.308-.837 8.882-2.381zm-31.447-7.209v-.901c0-4.892-.901-7.466-2.768-9.075-1.738-1.61-3.604-2.188-5.664-2.188-2.638 0-4.698.9-6.436 2.831-1.802 2.06-2.574 4.506-2.574 8.174 0 6.63 3.733 10.878 9.59 10.878 2.832 0 5.342-.901 7.53-2.768l-1.802-2.703c-1.545 1.351-3.218 2.06-5.213 2.06-4.055 0-5.15-3.09-5.15-5.986v-.322h12.487zm-4.699-3.347h-7.723c0-3.347 1.416-5.342 3.99-5.342 2.253 0 3.733 1.995 3.733 5.342zm-16.772 12.55v-14.674c0-2.124-.193-3.09-.708-4.119-.708-1.352-2.575-2.574-5.085-2.574-2.188 0-4.312.9-6.372 2.767 0-.193.064-1.223.064-2.381v-4.441c0-1.996-.128-3.669-.386-4.892l-4.57.966c.258 1.094.387 2.703.387 4.57v24.779h4.57v-14.932c1.48-1.545 3.41-2.575 5.02-2.575 1.738 0 2.639.773 2.639 3.347v14.16h4.44zm-19.914-2.252l-2.124-2.703c-1.352 1.351-2.768 2.06-4.184 2.06-1.158 0-2.123-.451-2.767-1.223-.966-1.03-1.416-2.832-1.416-5.664 0-2.64.257-4.57.901-5.857.644-1.352 1.802-2.06 3.282-2.06 1.159 0 2.253.45 3.476 1.61l2.253-3.026c-1.802-1.738-3.476-2.252-5.729-2.252-4.698 0-9.203 3.604-9.203 11.199 0 6.693 3.153 10.684 8.882 10.684 2.767 0 4.762-.837 6.629-2.768zm-18.266-4.248c0-2.446-1.159-4.763-5.342-5.792l-2.575-.708c-2.124-.515-2.832-1.159-2.832-2.446 0-1.61 1.288-2.703 3.219-2.703 1.609 0 3.153.515 5.084 1.544l1.48-3.153c-1.737-.901-4.054-1.803-6.886-1.803-4.634 0-7.724 2.768-7.724 6.63 0 2.96 1.867 5.084 4.956 5.728l2.51.58c2.382.45 3.412 1.286 3.412 2.896 0 1.737-1.416 2.896-3.412 2.896-2.317 0-4.891-1.094-6.758-2.124l-1.609 3.218c2.703 1.48 5.471 2.317 8.046 2.317 5.02 0 8.431-2.896 8.431-7.08zm-18.408 6.115l-.579-2.704c-.772.258-1.287.387-1.93.387-1.996 0-2.575-.708-2.575-3.283v-11.714h3.862l1.158-3.154h-4.956c0-2.06.193-4.57.386-6.243l-4.698 1.094c-.193 1.545-.193 3.412-.193 5.15h-2.317v3.153h2.317v12.873c0 2.96 1.416 5.342 5.47 5.342a9.267 9.267 0 0 0 4.055-.901zm-13.67-1.095c-.257-.193-1.287-1.351-1.287-4.183v-15.704l-4.377.836v14.932c-.708 1.48-2.574 2.703-4.12 2.703-2.638 0-3.024-1.866-3.024-4.505V115.64l-4.441.836v14.16c0 2.574.322 3.926 1.158 4.956 1.03 1.223 2.832 2.06 5.214 2.06 2.381 0 4.376-.837 5.921-2.575.322 1.158.901 1.93 1.802 2.574l3.154-2.124zm-20.956-7.723v-.901c0-4.892-.902-7.466-2.768-9.075-1.738-1.61-3.604-2.188-5.664-2.188-2.639 0-4.698.9-6.436 2.831-1.802 2.06-2.575 4.506-2.575 8.174 0 6.63 3.733 10.878 9.59 10.878 2.832 0 5.342-.901 7.53-2.768l-1.801-2.703c-1.545 1.351-3.218 2.06-5.214 2.06-4.055 0-5.149-3.09-5.149-5.986v-.322h12.487zm-4.699-3.347h-7.723c0-3.347 1.416-5.342 3.99-5.342 2.253 0 3.733 1.995 3.733 5.342zm-15.949-1.609c0-4.44-.965-7.852-3.09-10.298-2.638-3.09-5.792-4.055-11.198-4.055h-5.922v28.513h7.08c5.278 0 7.788-.966 10.17-3.99 1.93-2.446 2.96-5.858 2.96-10.17zm-5.213.515c0 6.436-2.06 9.783-7.08 9.783h-3.154v-20.918h3.025c2.575 0 4.055.708 5.342 2.51 1.48 1.996 1.867 4.956 1.867 8.625zm203.075-94.677h-13.323l-10.684 31.216c-1.223 3.411-2.832 8.689-3.668 12.615a107.526 107.526 0 0 0-2.897-11.006l-10.426-32.825h-13.838l21.368 63.461h11.52l21.948-63.46zM313.9 71.1V28.685h-12.873V69.04c0 3.347 0 4.248-.193 5.6-.515 4.634-4.054 7.337-9.59 7.337-4.183 0-7.144-1.545-8.624-4.312-.708-1.352-1.094-3.669-1.094-7.53v-41.45h-12.937V72.58c0 6.05.644 8.625 2.703 11.843 3.54 5.535 10.62 8.431 20.21 8.431 13.58 0 19.759-6.886 21.368-11.842.901-2.704 1.03-3.926 1.03-9.912zm-56.96 15.704V56.747h-24.33l1.61 10.298h9.59v14.288c-2.06 1.095-4.313 1.545-7.145 1.545-4.055 0-7.53-1.223-9.847-3.475-3.218-3.218-4.763-9.011-4.763-17.957 0-9.462 1.094-16.22 5.342-20.339 2.188-2.06 5.406-3.154 9.075-3.154 4.827 0 9.075 1.545 13.13 4.892l6.758-7.852c-5.535-4.827-12.422-7.273-20.081-7.273-5.921 0-10.684 1.351-15.318 4.44-8.753 5.858-13.13 15.319-13.13 28.642 0 9.397 2.124 16.09 6.758 22.012 5.02 6.5 12.036 9.59 21.433 9.59 7.466 0 14.481-1.802 20.917-5.6zm-56.33-26.388c0-11.328-2.832-19.373-8.625-25.101-3.797-3.798-8.431-5.793-13.774-6.244-2.51-.193-7.337-.386-10.941-.386h-12.68v63.01h15.319c3.668 0 6.693-.192 9.01-.385 5.922-.45 11.521-3.862 15.319-9.011 4.248-5.728 6.371-13.259 6.371-21.883zm-14.225 1.223c0 13.323-3.797 19.694-12.164 19.694h-6.822V38.661h5.857c4.955 0 7.852 1.803 9.911 5.278 2.575 4.184 3.218 10.298 3.218 17.7zm0 0" fill="#575759"/><path d="M382.973 218.36c-.386-.9-.58-2.767-.58-6.371v-19.566l-3.925-.644v6.694c0 1.416.064 2.703.129 2.96-1.159-1.158-2.382-1.609-3.926-1.609-4.441 0-7.595 3.862-7.595 9.59s2.832 9.333 7.466 9.333c1.802 0 3.218-.58 4.44-1.802.13.772.194 1.03.323 1.416h3.668zm-4.505-4.634c-.515.902-1.738 1.738-3.218 1.738-2.96 0-3.798-2.06-3.798-6.05 0-4.44 1.159-6.436 3.669-6.436 1.352 0 2.446.515 3.347 1.48v9.268zm-15.125 4.635v-13.645c0-3.347-1.931-5.02-4.763-5.02-1.93 0-3.669.836-5.6 2.51 0-.966-.193-1.738-.643-2.575l-3.604.966c.514 1.351.708 2.445.708 4.376v13.388h3.861V205.1c1.223-1.158 2.897-1.994 3.99-1.994 1.545 0 2.125.643 2.125 3.153v12.1h3.926zm-17.172-1.738c-1.416-1.03-1.673-1.802-1.61-4.248l.065-5.213c.064-2.704.064-3.67-.257-4.506-.837-1.93-2.703-3.025-5.6-3.025-2.703 0-4.956.772-7.723 2.51l1.738 2.832c.579-.386 3.153-2.06 5.47-2.06 2.189 0 2.51 1.095 2.51 3.219v.965h-1.222c-5.857 0-9.011 2.124-9.011 6.308 0 3.218 1.867 5.47 6.05 5.47 1.995 0 3.54-.579 5.02-2.188.45 1.159 1.352 1.995 2.51 2.446l2.06-2.51zm-5.47-6.823l-.065 4.313c-.772 1.158-1.995 1.93-3.283 1.93-1.609 0-2.51-1.094-2.51-2.831 0-2.317 1.159-3.476 5.15-3.476.257 0 .643.064.707.064zm-12.783-.836c0-5.729-2.768-9.268-7.08-9.268-1.738 0-3.09.514-4.377 1.737h-.129c.065-.128.13-.708.13-1.737v-4.248c0-1.48-.065-2.382-.323-3.669l-4.054.901c.322 1.03.45 2.317.45 4.441v17.185c0 2.445-.129 3.218-.45 4.055h3.604c.257-.451.322-.708.515-1.674 1.094 1.352 2.639 2.06 4.44 2.06 4.249 0 7.274-3.926 7.274-9.783zm-4.506 0c0 4.634-1.03 6.436-3.54 6.436-1.415 0-2.574-.772-3.41-1.61v-8.881c.772-.901 1.801-1.867 3.475-1.867 2.832 0 3.475 2.64 3.475 5.922zm-13.155-9.075c-.45-.193-.837-.258-1.416-.258-1.738 0-3.218.901-4.634 2.896 0-1.03-.258-2.06-.708-2.896l-3.604.965c.386 1.095.643 2.575.643 4.892v12.872h3.926v-12.357c.386-1.416 1.802-2.703 3.476-2.703.386 0 .708.128 1.094.257l1.223-3.668zm-13.349 10.426v-.836c0-4.248-.772-6.501-2.381-7.917-1.545-1.416-3.218-1.866-5.02-1.866-2.318 0-4.12.772-5.6 2.445-1.545 1.802-2.253 3.926-2.253 7.144 0 5.857 3.218 9.526 8.367 9.526 2.51 0 4.699-.772 6.565-2.381l-1.544-2.446c-1.352 1.223-2.832 1.802-4.506 1.802-3.604 0-4.505-2.639-4.505-5.149v-.322h10.877zm-4.12-2.896h-6.757c0-2.96 1.223-4.763 3.475-4.763 1.996 0 3.283 1.802 3.283 4.763zm-12.138-7.273h-4.119l-3.025 9.268c-.644 1.802-1.03 3.733-1.094 4.184h-.064c-.258-.901-.708-2.703-1.159-4.055l-3.154-9.847-4.054.579 6.564 18.15h3.476l6.63-18.279zm-18.832 18.215v-13.645c0-3.347-1.931-5.02-4.763-5.02-1.93 0-3.669.836-5.6 2.51 0-.966-.193-1.738-.643-2.575l-3.604.966c.515 1.351.708 2.445.708 4.376v13.388h3.861V205.1c1.223-1.158 2.897-1.994 3.99-1.994 1.546 0 2.125.643 2.125 3.153v12.1h3.926zm-17.468-8.046v-.836c0-4.248-.772-6.501-2.381-7.917-1.545-1.416-3.218-1.866-5.02-1.866-2.318 0-4.12.772-5.6 2.445-1.545 1.802-2.253 3.926-2.253 7.144 0 5.857 3.218 9.526 8.367 9.526 2.51 0 4.699-.772 6.565-2.381l-1.544-2.446c-1.352 1.223-2.832 1.802-4.506 1.802-3.604 0-4.505-2.639-4.505-5.149v-.322h10.877zm-4.12-2.896h-6.757c0-2.96 1.223-4.763 3.475-4.763 1.996 0 3.283 1.802 3.283 4.763zm-13.039 8.174h-9.01l8.624-12.68v-2.767h-12.873v2.768h8.432l-9.14 12.808v2.639h12.873l1.094-2.768zm-15.988 2.446l-.514-2.382c-.644.258-1.159.386-1.674.386-1.738 0-2.252-.643-2.252-2.96v-10.234h3.346l1.094-2.703h-4.376c0-1.802.129-4.055.321-5.47l-4.054.965c-.194 1.351-.194 2.96-.194 4.505h-2.06v2.703h2.06v11.264c0 2.638 1.223 4.698 4.763 4.698 1.223 0 2.382-.258 3.54-.772zm-13.232.322v-18.665l-3.99.707v17.958h3.99zm.643-23.557c0-1.545-1.158-2.703-2.574-2.703-1.48 0-2.64 1.223-2.64 2.703 0 1.416 1.095 2.639 2.575 2.639 1.48 0 2.64-1.223 2.64-2.639zm-8.418 14.03c0-6.307-3.218-9.138-6.887-9.138-1.93 0-3.733.772-4.892 2.188 0-1.094-.064-1.61-.257-2.253l-3.669.644c.258 1.351.387 2.317.387 4.57v21.239l3.797-.965v-6.05c0-.902-.064-1.674-.064-1.803 1.287.966 2.767 1.48 4.312 1.48 4.634 0 7.273-3.861 7.273-9.911zm-4.248.451c0 4.313-1.223 6.308-3.862 6.308-1.223 0-2.446-.708-3.411-1.61v-9.074c1.094-1.223 2.446-1.931 3.862-1.931 2.574 0 3.41 2.253 3.41 6.307zm-14.662 1.545c0-3.733-2.574-6.05-6.179-7.08l-2.96-.9c-2.446-.709-3.283-1.481-3.283-3.026 0-2.06 1.61-3.411 4.055-3.411 1.995 0 3.604.515 5.857 1.93l1.93-2.96c-2.252-1.544-5.084-2.381-7.916-2.381-5.02 0-8.496 3.025-8.496 7.401 0 1.48.387 2.64 1.095 3.67.9 1.415 2.51 2.316 4.827 2.96l2.639.772c2.574.708 3.733 1.867 3.733 3.733 0 2.446-1.867 3.926-4.892 3.926-2.574 0-4.505-.772-6.758-2.06l-1.609 3.219c2.446 1.48 5.342 2.188 8.174 2.188 6.372 0 9.783-3.862 9.783-7.98zm0 0" fill="#919497"/><path d="M99.149 28.518c0 17.262-14.018 31.241-31.267 31.241-17.262 0-31.242-13.98-31.242-31.241H5C5 63.235 33.165 91.4 67.882 91.4c34.73 0 62.882-28.165 62.882-62.882H99.149zm-54.785 0C44.364 15.53 54.906 5 67.882 5 80.87 5 91.387 15.53 91.387 28.518c0 13.001-10.517 23.518-23.505 23.518-12.976 0-23.518-10.517-23.518-23.518" fill="#00519c"/></svg>